<?xml version="1.0" standalone="no"?>
<!DOCTYPE svg PUBLIC "-//W3C//DTD SVG 20010904//EN"
 "http://www.w3.org/TR/2001/REC-SVG-20010904/DTD/svg10.dtd">
<svg version="1.0" xmlns="http://www.w3.org/2000/svg"
 width="256.000000pt" height="256.000000pt" viewBox="0 0 256.000000 256.000000"
 preserveAspectRatio="xMidYMid meet">
<metadata>
Created by potrace 1.10, written by Peter Selinger 2001-2011
</metadata>
<g transform="translate(0.000000,256.000000) scale(0.100000,-0.100000)"
fill="#000000" stroke="none">
<path d="M344 2309 c-94 -27 -184 -125 -204 -222 -7 -37 -10 -296 -8 -838 l3
-784 28 -57 c30 -61 74 -105 140 -140 l42 -23 935 0 935 0 42 23 c66 35 110
79 140 140 l28 57 0 815 0 815 -28 57 c-30 61 -74 105 -140 140 l-42 23 -920
2 c-535 1 -933 -2 -951 -8z m1886 -50 c55 -25 105 -71 133 -124 l22 -40 0
-815 0 -815 -22 -40 c-28 -53 -78 -99 -133 -124 -44 -20 -62 -21 -937 -21
-681 0 -904 3 -939 12 -56 15 -126 74 -157 132 l-22 41 0 815 c0 776 1 817 19
850 36 68 97 120 166 141 14 4 430 8 925 8 884 1 901 0 945 -20z"/>
<path d="M705 1687 c-180 -68 -285 -217 -287 -404 -1 -175 96 -324 262 -402
49 -23 68 -26 165 -26 100 0 116 3 170 28 156 73 207 167 131 243 -45 45 -95
47 -153 5 -65 -47 -127 -64 -187 -51 -27 6 -65 22 -84 37 -39 29 -82 113 -82
159 0 131 130 236 251 204 23 -6 65 -27 93 -46 69 -47 115 -47 162 0 76 76 24
171 -131 243 -85 39 -223 43 -310 10z m307 -44 c86 -41 138 -90 138 -134 0
-72 -79 -104 -137 -55 -97 80 -222 85 -318 11 -48 -36 -85 -116 -85 -185 0
-210 237 -312 403 -174 58 48 137 17 137 -54 0 -45 -50 -94 -140 -136 -59 -28
-74 -31 -160 -31 -75 1 -107 5 -153 24 -81 32 -168 115 -209 199 -31 63 -33
73 -33 172 0 93 3 112 27 162 29 63 101 146 155 179 108 67 260 76 375 22z"/>
<path d="M1665 1687 c-180 -69 -285 -217 -287 -406 -1 -172 101 -326 267 -403
42 -19 67 -22 160 -23 100 0 116 3 170 28 156 73 207 167 131 243 -45 45 -95
47 -153 5 -65 -47 -127 -64 -187 -51 -27 6 -65 22 -84 37 -39 29 -82 113 -82
159 0 131 130 236 251 204 23 -6 65 -27 93 -46 69 -47 115 -47 162 0 73 73 29
163 -113 233 -69 34 -84 38 -172 40 -80 3 -106 -1 -156 -20z m307 -44 c86 -41
138 -90 138 -134 0 -72 -79 -104 -137 -55 -97 80 -222 85 -318 11 -48 -36 -85
-116 -85 -185 0 -210 237 -312 403 -174 58 48 137 17 137 -54 0 -45 -50 -94
-140 -136 -59 -28 -74 -31 -160 -31 -75 1 -107 5 -153 24 -81 32 -168 115
-209 199 -31 63 -33 73 -33 172 0 93 3 112 27 162 29 63 101 146 155 179 108
67 260 76 375 22z"/>
</g>
</svg>
